<svg width="154" height="21" viewBox="0 0 154 21" fill="none" xmlns="http://www.w3.org/2000/svg">
<path d="M0.592 20L3.79 1.8H6.26L3.062 20H0.592ZM16.048 8.222C15.4413 8.222 14.7827 8.44733 14.072 8.898C13.3613 9.34867 12.7027 10.0507 12.096 11.004C11.5067 11.94 11.082 13.1447 10.822 14.618L9.88598 20H7.54598L9.91198 6.48H12.174L11.602 9.6C12.1393 8.56 12.8587 7.728 13.76 7.104C14.6787 6.48 15.6407 6.168 16.646 6.168C17.8247 6.168 18.7693 6.532 19.48 7.26C20.1907 7.97067 20.546 8.846 20.546 9.886C20.546 10.3193 20.494 10.8653 20.39 11.524L18.908 20H16.568L17.998 11.914C18.0847 11.498 18.1367 11.1947 18.154 11.004C18.1713 10.796 18.18 10.6053 18.18 10.432C18.18 9.756 17.9807 9.21867 17.582 8.82C17.2007 8.42133 16.6893 8.222 16.048 8.222ZM23.3245 6.974H25.7165L26.9645 2.71H28.7585L28.0045 6.974H31.7485L31.4105 9.002H27.6405L26.5485 15.32C26.5139 15.5107 26.4879 15.6927 26.4705 15.866C26.4532 16.022 26.4445 16.1693 26.4445 16.308C26.4445 16.9147 26.6265 17.3913 26.9905 17.738C27.3545 18.0673 27.8312 18.232 28.4205 18.232C28.9232 18.232 29.3479 18.1627 29.6945 18.024C30.0412 17.868 30.3532 17.712 30.6305 17.556L30.9165 19.584C30.5872 19.7747 30.1712 19.9393 29.6685 20.078C29.1832 20.234 28.6372 20.312 28.0305 20.312C27.3892 20.312 26.7652 20.182 26.1585 19.922C25.5692 19.662 25.0839 19.2547 24.7025 18.7C24.3212 18.128 24.1305 17.3913 24.1305 16.49C24.1305 16.1087 24.1652 15.684 24.2345 15.216L25.3005 9.002H22.9865L23.3245 6.974ZM38.5829 20.312C37.4389 20.312 36.4249 20.0693 35.5409 19.584C34.6742 19.0813 33.9895 18.3707 33.4869 17.452C33.0015 16.516 32.7589 15.4153 32.7589 14.15C32.7589 12.7113 33.0535 11.3853 33.6429 10.172C34.2495 8.95867 35.0989 7.988 36.1909 7.26C37.3002 6.532 38.5915 6.168 40.0649 6.168C41.0702 6.168 41.9195 6.35867 42.6129 6.74C43.3235 7.12133 43.8695 7.61533 44.2509 8.222C44.6322 8.82867 44.8229 9.47867 44.8229 10.172C44.8229 11.1253 44.5975 11.914 44.1469 12.538C43.6962 13.162 43.1155 13.6473 42.4049 13.994C41.6942 14.3233 40.9229 14.5573 40.0909 14.696C39.2762 14.8347 38.4962 14.904 37.7509 14.904C37.2829 14.904 36.8149 14.8867 36.3469 14.852C35.8962 14.8 35.4975 14.748 35.1509 14.696C35.2895 15.84 35.6969 16.7153 36.3729 17.322C37.0489 17.9287 37.9155 18.232 38.9729 18.232C39.8395 18.232 40.6109 18.1193 41.2869 17.894C41.9629 17.6687 42.5349 17.4433 43.0029 17.218L43.2109 19.298C42.6909 19.5407 42.0322 19.7747 41.2349 20C40.4375 20.208 39.5535 20.312 38.5829 20.312ZM39.8829 8.144C39.0682 8.144 38.3315 8.352 37.6729 8.768C37.0142 9.16667 36.4682 9.72133 36.0349 10.432C35.6189 11.1253 35.3415 11.9227 35.2029 12.824C35.6015 12.8933 36.0002 12.954 36.3989 13.006C36.8149 13.0407 37.2655 13.058 37.7509 13.058C39.2069 13.058 40.3595 12.8587 41.2089 12.46C42.0582 12.044 42.4829 11.342 42.4829 10.354C42.4829 9.74733 42.2402 9.22733 41.7549 8.794C41.2869 8.36067 40.6629 8.144 39.8829 8.144ZM48.3219 10.276C48.3392 10.1893 48.3479 10.094 48.3479 9.99C48.3652 9.86867 48.3739 9.74733 48.3739 9.626C48.3739 9.14067 48.2352 8.80267 47.9579 8.612C47.6806 8.404 47.3166 8.3 46.8659 8.3L47.6719 6.48C48.5906 6.48 49.2926 6.70533 49.7779 7.156C50.2806 7.58933 50.5319 8.23933 50.5319 9.106V9.626C51.0346 8.39533 51.6759 7.51133 52.4559 6.974C53.2532 6.43667 54.1546 6.168 55.1599 6.168C55.5586 6.168 55.8966 6.20267 56.1739 6.272C56.4686 6.324 56.7112 6.39333 56.9019 6.48L55.8619 8.768C55.6539 8.68133 55.4372 8.62067 55.2119 8.586C54.9866 8.55133 54.7266 8.534 54.4319 8.534C53.8079 8.534 53.1839 8.75933 52.5599 9.21C51.9532 9.64333 51.3986 10.3713 50.8959 11.394C50.4106 12.4167 50.0119 13.8207 49.6999 15.606L48.9459 20H46.6059L48.3219 10.276ZM73.731 8.222C73.159 8.222 72.535 8.43867 71.859 8.872C71.183 9.30533 70.5677 9.98133 70.013 10.9C69.4584 11.8013 69.051 12.9713 68.791 14.41L67.803 20H65.463L66.945 11.914C67.0317 11.498 67.0837 11.1947 67.101 11.004C67.1183 10.796 67.127 10.6053 67.127 10.432C67.127 9.756 66.9277 9.21867 66.529 8.82C66.1477 8.42133 65.645 8.222 65.021 8.222C64.4143 8.222 63.773 8.44733 63.097 8.898C62.421 9.34867 61.8057 10.0507 61.251 11.004C60.6963 11.94 60.289 13.1447 60.029 14.618L59.093 20H56.753L59.119 6.48H61.381L60.809 9.6C61.329 8.56 62.031 7.728 62.915 7.104C63.8163 6.48 64.7437 6.168 65.697 6.168C66.7717 6.168 67.6383 6.49733 68.297 7.156C68.9557 7.79733 69.3284 8.612 69.415 9.6C70.0043 8.52533 70.7237 7.68467 71.573 7.078C72.4397 6.47133 73.3757 6.168 74.381 6.168C75.5424 6.168 76.461 6.532 77.137 7.26C77.8304 7.97067 78.177 8.846 78.177 9.886C78.177 10.3193 78.125 10.8653 78.021 11.524L76.513 20H74.173L75.655 11.914C75.7417 11.498 75.7937 11.1947 75.811 11.004C75.8283 10.796 75.837 10.6053 75.837 10.432C75.837 9.756 75.6377 9.21867 75.239 8.82C74.8577 8.42133 74.355 8.222 73.731 8.222ZM86.3173 20.312C85.1733 20.312 84.1593 20.0693 83.2753 19.584C82.4086 19.0813 81.7239 18.3707 81.2213 17.452C80.7359 16.516 80.4933 15.4153 80.4933 14.15C80.4933 12.7113 80.7879 11.3853 81.3773 10.172C81.9839 8.95867 82.8333 7.988 83.9253 7.26C85.0346 6.532 86.3259 6.168 87.7993 6.168C88.8046 6.168 89.6539 6.35867 90.3473 6.74C91.0579 7.12133 91.6039 7.61533 91.9853 8.222C92.3666 8.82867 92.5573 9.47867 92.5573 10.172C92.5573 11.1253 92.3319 11.914 91.8813 12.538C91.4306 13.162 90.8499 13.6473 90.1393 13.994C89.4286 14.3233 88.6573 14.5573 87.8253 14.696C87.0106 14.8347 86.2306 14.904 85.4853 14.904C85.0173 14.904 84.5493 14.8867 84.0813 14.852C83.6306 14.8 83.2319 14.748 82.8853 14.696C83.0239 15.84 83.4313 16.7153 84.1073 17.322C84.7833 17.9287 85.6499 18.232 86.7073 18.232C87.5739 18.232 88.3453 18.1193 89.0213 17.894C89.6973 17.6687 90.2693 17.4433 90.7373 17.218L90.9453 19.298C90.4253 19.5407 89.7666 19.7747 88.9693 20C88.1719 20.208 87.2879 20.312 86.3173 20.312ZM87.6173 8.144C86.8026 8.144 86.0659 8.352 85.4073 8.768C84.7486 9.16667 84.2026 9.72133 83.7693 10.432C83.3533 11.1253 83.0759 11.9227 82.9373 12.824C83.3359 12.8933 83.7346 12.954 84.1333 13.006C84.5493 13.0407 84.9999 13.058 85.4853 13.058C86.9413 13.058 88.0939 12.8587 88.9433 12.46C89.7926 12.044 90.2173 11.342 90.2173 10.354C90.2173 9.74733 89.9746 9.22733 89.4893 8.794C89.0213 8.36067 88.3973 8.144 87.6173 8.144ZM106.482 20.13C105.546 20.13 104.827 19.9047 104.324 19.454C103.839 18.986 103.596 18.258 103.596 17.27C103.094 18.102 102.461 18.8213 101.698 19.428C100.936 20.0173 100.052 20.312 99.0463 20.312C98.1796 20.312 97.3649 20.0867 96.6023 19.636C95.8396 19.168 95.2243 18.518 94.7563 17.686C94.3056 16.8367 94.0803 15.8313 94.0803 14.67C94.0803 13.3353 94.2796 12.148 94.6783 11.108C95.0769 10.0507 95.6056 9.158 96.2643 8.43C96.9403 7.702 97.6769 7.14733 98.4743 6.766C99.2889 6.36733 100.112 6.168 100.944 6.168C101.863 6.168 102.652 6.39333 103.31 6.844C103.986 7.29467 104.506 7.84933 104.87 8.508L106.248 0.76H108.588L105.832 16.334C105.815 16.4207 105.798 16.5247 105.78 16.646C105.78 16.75 105.78 16.8627 105.78 16.984C105.78 17.4693 105.919 17.816 106.196 18.024C106.474 18.2147 106.838 18.31 107.288 18.31L106.482 20.13ZM99.6703 18.232C100.329 18.232 100.953 18.024 101.542 17.608C102.149 17.192 102.669 16.6113 103.102 15.866C103.553 15.1033 103.865 14.2107 104.038 13.188L104.506 10.51C104.16 9.782 103.692 9.21867 103.102 8.82C102.513 8.404 101.863 8.196 101.152 8.196C100.355 8.196 99.5923 8.44733 98.8643 8.95C98.1536 9.43533 97.5729 10.1373 97.1223 11.056C96.6889 11.9573 96.4723 13.0493 96.4723 14.332C96.4723 15.1813 96.6196 15.9007 96.9143 16.49C97.2263 17.062 97.6249 17.4953 98.1103 17.79C98.6129 18.0847 99.1329 18.232 99.6703 18.232ZM113.825 4.166C113.34 4.166 112.967 4.02733 112.707 3.75C112.465 3.45533 112.343 3.11733 112.343 2.736C112.343 2.18133 112.517 1.73933 112.863 1.41C113.21 1.06333 113.643 0.89 114.163 0.89C114.649 0.89 115.013 1.03733 115.255 1.332C115.515 1.60933 115.645 1.93867 115.645 2.32C115.645 2.85733 115.472 3.29933 115.125 3.646C114.779 3.99267 114.345 4.166 113.825 4.166ZM112.083 20H109.743L112.109 6.48H114.449L112.083 20ZM116.396 14.67C116.396 12.9887 116.76 11.5153 117.488 10.25C118.233 8.96733 119.256 7.97067 120.556 7.26C121.856 6.532 123.338 6.168 125.002 6.168C126.024 6.168 126.917 6.272 127.68 6.48C128.46 6.688 129.101 6.896 129.604 7.104L127.966 16.334C127.948 16.4207 127.931 16.5247 127.914 16.646C127.914 16.75 127.914 16.8627 127.914 16.984C127.914 17.4693 128.052 17.816 128.33 18.024C128.607 18.2147 128.971 18.31 129.422 18.31L128.616 20.13C127.68 20.13 126.96 19.9047 126.458 19.454C125.972 18.986 125.73 18.2667 125.73 17.296C125.244 18.128 124.629 18.8387 123.884 19.428C123.156 20.0173 122.298 20.312 121.31 20.312C120.46 20.312 119.663 20.0867 118.918 19.636C118.172 19.168 117.566 18.518 117.098 17.686C116.63 16.8367 116.396 15.8313 116.396 14.67ZM127.03 8.482C126.7 8.378 126.354 8.3 125.99 8.248C125.643 8.17867 125.218 8.144 124.716 8.144C123.52 8.144 122.48 8.41267 121.596 8.95C120.712 9.48733 120.018 10.2327 119.516 11.186C119.03 12.122 118.788 13.188 118.788 14.384C118.788 15.216 118.935 15.918 119.23 16.49C119.542 17.062 119.94 17.4953 120.426 17.79C120.911 18.0847 121.414 18.232 121.934 18.232C122.644 18.232 123.294 17.9893 123.884 17.504C124.473 17.0187 124.976 16.3427 125.392 15.476C125.825 14.6093 126.137 13.6213 126.328 12.512L127.03 8.482ZM132.25 6.974H134.642L135.89 2.71H137.684L136.93 6.974H140.674L140.336 9.002H136.566L135.474 15.32C135.44 15.5107 135.414 15.6927 135.396 15.866C135.379 16.022 135.37 16.1693 135.37 16.308C135.37 16.9147 135.552 17.3913 135.916 17.738C136.28 18.0673 136.757 18.232 137.346 18.232C137.849 18.232 138.274 18.1627 138.62 18.024C138.967 17.868 139.279 17.712 139.556 17.556L139.842 19.584C139.513 19.7747 139.097 19.9393 138.594 20.078C138.109 20.234 137.563 20.312 136.956 20.312C136.315 20.312 135.691 20.182 135.084 19.922C134.495 19.662 134.01 19.2547 133.628 18.7C133.247 18.128 133.056 17.3913 133.056 16.49C133.056 16.1087 133.091 15.684 133.16 15.216L134.226 9.002H131.912L132.25 6.974ZM147.509 20.312C146.365 20.312 145.351 20.0693 144.467 19.584C143.6 19.0813 142.915 18.3707 142.413 17.452C141.927 16.516 141.685 15.4153 141.685 14.15C141.685 12.7113 141.979 11.3853 142.569 10.172C143.175 8.95867 144.025 7.988 145.117 7.26C146.226 6.532 147.517 6.168 148.991 6.168C149.996 6.168 150.845 6.35867 151.539 6.74C152.249 7.12133 152.795 7.61533 153.177 8.222C153.558 8.82867 153.749 9.47867 153.749 10.172C153.749 11.1253 153.523 11.914 153.073 12.538C152.622 13.162 152.041 13.6473 151.331 13.994C150.62 14.3233 149.849 14.5573 149.017 14.696C148.202 14.8347 147.422 14.904 146.677 14.904C146.209 14.904 145.741 14.8867 145.273 14.852C144.822 14.8 144.423 14.748 144.077 14.696C144.215 15.84 144.623 16.7153 145.299 17.322C145.975 17.9287 146.841 18.232 147.899 18.232C148.765 18.232 149.537 18.1193 150.213 17.894C150.889 17.6687 151.461 17.4433 151.929 17.218L152.137 19.298C151.617 19.5407 150.958 19.7747 150.161 20C149.363 20.208 148.479 20.312 147.509 20.312ZM148.809 8.144C147.994 8.144 147.257 8.352 146.599 8.768C145.94 9.16667 145.394 9.72133 144.961 10.432C144.545 11.1253 144.267 11.9227 144.129 12.824C144.527 12.8933 144.926 12.954 145.325 13.006C145.741 13.0407 146.191 13.058 146.677 13.058C148.133 13.058 149.285 12.8587 150.135 12.46C150.984 12.044 151.409 11.342 151.409 10.354C151.409 9.74733 151.166 9.22733 150.681 8.794C150.213 8.36067 149.589 8.144 148.809 8.144Z" fill="#2B2F34"/>
</svg>
