<svg width="230" height="29" viewBox="0 0 230 29" fill="none" xmlns="http://www.w3.org/2000/svg">
<rect x="1" y="1" width="228" height="27" rx="6" fill="#2F80ED"/>
<path d="M15.588 19L17.31 9.2H18.64L16.918 19H15.588ZM21.0405 9.312C21.4231 9.228 21.8058 9.16267 22.1885 9.116C22.5711 9.06 23.0425 9.032 23.6025 9.032C24.3491 9.032 24.9838 9.14867 25.5065 9.382C26.0385 9.61533 26.4725 9.93733 26.8085 10.348C27.1445 10.7493 27.3918 11.2113 27.5505 11.734C27.7091 12.2473 27.7885 12.7887 27.7885 13.358C27.7885 14.478 27.5645 15.4767 27.1165 16.354C26.6685 17.2313 26.0338 17.922 25.2125 18.426C24.3911 18.9207 23.4111 19.168 22.2725 19.168C21.6751 19.168 21.1431 19.126 20.6765 19.042C20.2098 18.9673 19.7851 18.86 19.4025 18.72L21.0405 9.312ZM23.4905 10.152C23.2478 10.152 23.0191 10.166 22.8045 10.194C22.5898 10.2127 22.3891 10.2453 22.2025 10.292L20.8865 17.838C21.1011 17.894 21.3298 17.9407 21.5725 17.978C21.8151 18.006 22.0765 18.02 22.3565 18.02C23.1685 18.02 23.8778 17.8287 24.4845 17.446C25.1005 17.0633 25.5765 16.5313 25.9125 15.85C26.2485 15.1593 26.4165 14.366 26.4165 13.47C26.4165 12.882 26.3138 12.336 26.1085 11.832C25.9031 11.328 25.5858 10.922 25.1565 10.614C24.7271 10.306 24.1718 10.152 23.4905 10.152ZM30.4077 9.2H36.2177L36.0217 10.348H31.5277L31.0097 13.33H34.8597L34.6637 14.45H30.8137L30.2117 17.852H34.6917L34.4957 19H28.6857L30.4077 9.2ZM35.2935 18.482L40.6695 9.2H42.1675L44.3095 18.846L43.0355 19.14L42.4475 16.34H37.9115L36.3575 19.112L35.2935 18.482ZM38.5415 15.22H42.2095L41.2155 10.502L38.5415 15.22ZM47.2788 9.2H48.6088L47.0968 17.81H51.5908L51.3808 19H45.5568L47.2788 9.2ZM58.6127 9.2H64.3527L64.1567 10.348H59.7327L59.2147 13.344H62.8827L62.6867 14.436H59.0187L58.2207 19H56.8907L58.6127 9.2ZM68.1444 19.168C67.2671 19.168 66.5251 18.9767 65.9184 18.594C65.3118 18.2113 64.8498 17.698 64.5324 17.054C64.2151 16.4007 64.0564 15.6727 64.0564 14.87C64.0564 14.1233 64.1731 13.4047 64.4064 12.714C64.6398 12.014 64.9804 11.3887 65.4284 10.838C65.8858 10.278 66.4411 9.83933 67.0944 9.522C67.7478 9.19533 68.4944 9.032 69.3344 9.032C70.2118 9.032 70.9538 9.22333 71.5604 9.606C72.1671 9.98867 72.6291 10.5067 72.9464 11.16C73.2638 11.804 73.4224 12.5273 73.4224 13.33C73.4224 14.0767 73.3058 14.8 73.0724 15.5C72.8391 16.1907 72.4938 16.816 72.0364 17.376C71.5884 17.9267 71.0378 18.3653 70.3844 18.692C69.7311 19.0093 68.9844 19.168 68.1444 19.168ZM69.2224 10.18C68.6251 10.18 68.0884 10.306 67.6124 10.558C67.1458 10.81 66.7491 11.1553 66.4224 11.594C66.0958 12.0327 65.8438 12.5273 65.6664 13.078C65.4984 13.6287 65.4144 14.198 65.4144 14.786C65.4144 15.3833 65.5218 15.9293 65.7364 16.424C65.9511 16.9093 66.2684 17.2967 66.6884 17.586C67.1178 17.8753 67.6404 18.02 68.2564 18.02C68.8538 18.02 69.3858 17.894 69.8524 17.642C70.3284 17.39 70.7298 17.0447 71.0564 16.606C71.3831 16.1673 71.6304 15.6727 71.7984 15.122C71.9758 14.5713 72.0644 14.002 72.0644 13.414C72.0644 12.8167 71.9571 12.2753 71.7424 11.79C71.5278 11.2953 71.2104 10.9033 70.7904 10.614C70.3704 10.3247 69.8478 10.18 69.2224 10.18ZM76.0304 9.34C76.4504 9.26533 76.8424 9.20467 77.2064 9.158C77.5797 9.11133 78.0137 9.088 78.5084 9.088C79.2177 9.088 79.815 9.2 80.3004 9.424C80.7857 9.648 81.1544 9.95133 81.4064 10.334C81.6584 10.7073 81.7844 11.1227 81.7844 11.58C81.7844 12.4293 81.5137 13.0687 80.9724 13.498C80.431 13.9273 79.717 14.2073 78.8304 14.338C79.213 14.506 79.5117 14.716 79.7264 14.968C79.941 15.2107 80.109 15.4673 80.2304 15.738C80.3517 16.0087 80.4497 16.2747 80.5244 16.536C80.6084 16.7973 80.697 17.0353 80.7904 17.25C80.8837 17.4647 81.0144 17.6373 81.1824 17.768C81.3597 17.8893 81.6024 17.95 81.9104 17.95L81.4204 19.098C81.0097 19.098 80.6784 19.0187 80.4264 18.86C80.1744 18.7013 79.969 18.496 79.8104 18.244C79.661 17.9827 79.5257 17.698 79.4044 17.39C79.2924 17.0727 79.171 16.76 79.0404 16.452C78.9097 16.1347 78.7417 15.85 78.5364 15.598C78.331 15.3367 78.0557 15.1267 77.7104 14.968C77.3744 14.8093 76.9404 14.73 76.4084 14.73L75.6524 19H74.3224L76.0304 9.34ZM78.4244 10.194C78.1817 10.194 77.9577 10.2033 77.7524 10.222C77.5564 10.2407 77.3697 10.2687 77.1924 10.306L76.6044 13.61H77.7664C78.5877 13.61 79.241 13.442 79.7264 13.106C80.221 12.77 80.4684 12.3173 80.4684 11.748C80.4684 11.2907 80.2864 10.9173 79.9224 10.628C79.5677 10.3387 79.0684 10.194 78.4244 10.194ZM88.937 9.2H94.677L94.481 10.348H90.057L89.539 13.344H93.207L93.011 14.436H89.343L88.545 19H87.215L88.937 9.2ZM94.3107 19L96.0327 9.2H97.3627L95.6407 19H94.3107ZM99.8331 9.34C100.253 9.26533 100.645 9.20467 101.009 9.158C101.382 9.11133 101.816 9.088 102.311 9.088C103.02 9.088 103.618 9.2 104.103 9.424C104.588 9.648 104.957 9.95133 105.209 10.334C105.461 10.7073 105.587 11.1227 105.587 11.58C105.587 12.4293 105.316 13.0687 104.775 13.498C104.234 13.9273 103.52 14.2073 102.633 14.338C103.016 14.506 103.314 14.716 103.529 14.968C103.744 15.2107 103.912 15.4673 104.033 15.738C104.154 16.0087 104.252 16.2747 104.327 16.536C104.411 16.7973 104.5 17.0353 104.593 17.25C104.686 17.4647 104.817 17.6373 104.985 17.768C105.162 17.8893 105.405 17.95 105.713 17.95L105.223 19.098C104.812 19.098 104.481 19.0187 104.229 18.86C103.977 18.7013 103.772 18.496 103.613 18.244C103.464 17.9827 103.328 17.698 103.207 17.39C103.095 17.0727 102.974 16.76 102.843 16.452C102.712 16.1347 102.544 15.85 102.339 15.598C102.134 15.3367 101.858 15.1267 101.513 14.968C101.177 14.8093 100.743 14.73 100.211 14.73L99.4551 19H98.1251L99.8331 9.34ZM102.227 10.194C101.984 10.194 101.76 10.2033 101.555 10.222C101.359 10.2407 101.172 10.2687 100.995 10.306L100.407 13.61H101.569C102.39 13.61 103.044 13.442 103.529 13.106C104.024 12.77 104.271 12.3173 104.271 11.748C104.271 11.2907 104.089 10.9173 103.725 10.628C103.37 10.3387 102.871 10.194 102.227 10.194ZM111.636 16.522C111.636 16.2607 111.58 16.0227 111.468 15.808C111.366 15.5933 111.174 15.374 110.894 15.15C110.614 14.9167 110.213 14.6553 109.69 14.366C108.962 13.9553 108.444 13.5493 108.136 13.148C107.838 12.7467 107.688 12.2333 107.688 11.608C107.688 11.0853 107.824 10.6327 108.094 10.25C108.374 9.86733 108.762 9.56867 109.256 9.354C109.751 9.13933 110.32 9.032 110.964 9.032C111.552 9.032 112.084 9.10667 112.56 9.256C113.036 9.396 113.48 9.58733 113.89 9.83L113.204 10.922C112.868 10.7073 112.514 10.53 112.14 10.39C111.776 10.25 111.347 10.18 110.852 10.18C110.302 10.18 109.858 10.3013 109.522 10.544C109.186 10.7773 109.018 11.0853 109.018 11.468C109.018 11.8133 109.135 12.1213 109.368 12.392C109.611 12.6533 110.054 12.9567 110.698 13.302C111.314 13.6287 111.786 13.9507 112.112 14.268C112.448 14.576 112.677 14.9027 112.798 15.248C112.929 15.5933 112.994 15.976 112.994 16.396C112.994 16.9653 112.845 17.46 112.546 17.88C112.257 18.2907 111.851 18.608 111.328 18.832C110.806 19.056 110.199 19.168 109.508 19.168C108.836 19.168 108.23 19.0793 107.688 18.902C107.147 18.7153 106.671 18.4587 106.26 18.132L107.128 17.054C107.446 17.3433 107.814 17.5767 108.234 17.754C108.664 17.922 109.135 18.006 109.648 18.006C110.255 18.006 110.736 17.8753 111.09 17.614C111.454 17.3433 111.636 16.9793 111.636 16.522ZM115.067 9.2H122.417L122.207 10.376H119.197L117.685 19H116.355L117.867 10.376H114.857L115.067 9.2ZM122.475 14.772L122.685 13.624H127.445L127.235 14.772H122.475ZM129.546 9.2H136.896L136.686 10.376H133.676L132.164 19H130.834L132.346 10.376H129.336L129.546 9.2ZM136.598 19L138.32 9.2H139.65L137.928 19H136.598ZM149.68 10.81L146.054 16.788H144.752L143.114 10.754L141.672 19H140.412L142.134 9.2H143.94L145.592 15.444L149.288 9.2H151.29L149.568 19H148.238L149.68 10.81ZM153.769 9.2H159.579L159.383 10.348H154.889L154.371 13.33H158.221L158.025 14.45H154.175L153.573 17.852H158.053L157.857 19H152.047L153.769 9.2ZM168.928 10.194C168.247 10.194 167.631 10.3993 167.08 10.81C166.529 11.2113 166.091 11.7667 165.764 12.476C165.437 13.176 165.274 13.9833 165.274 14.898C165.274 15.906 165.521 16.676 166.016 17.208C166.511 17.74 167.141 18.006 167.906 18.006C168.345 18.006 168.732 17.9453 169.068 17.824C169.413 17.7027 169.749 17.558 170.076 17.39L170.3 18.594C169.955 18.7527 169.572 18.888 169.152 19C168.732 19.112 168.256 19.168 167.724 19.168C166.959 19.168 166.287 19.0047 165.708 18.678C165.139 18.3513 164.695 17.88 164.378 17.264C164.061 16.6387 163.902 15.8827 163.902 14.996C163.902 14.156 164.023 13.3767 164.266 12.658C164.518 11.93 164.873 11.2953 165.33 10.754C165.787 10.2127 166.329 9.79267 166.954 9.494C167.589 9.186 168.284 9.032 169.04 9.032C169.591 9.032 170.076 9.10667 170.496 9.256C170.916 9.40533 171.266 9.55933 171.546 9.718L170.944 10.81C170.664 10.6327 170.365 10.488 170.048 10.376C169.74 10.2547 169.367 10.194 168.928 10.194ZM175.824 19.168C174.947 19.168 174.205 18.9767 173.598 18.594C172.991 18.2113 172.529 17.698 172.212 17.054C171.895 16.4007 171.736 15.6727 171.736 14.87C171.736 14.1233 171.853 13.4047 172.086 12.714C172.319 12.014 172.66 11.3887 173.108 10.838C173.565 10.278 174.121 9.83933 174.774 9.522C175.427 9.19533 176.174 9.032 177.014 9.032C177.891 9.032 178.633 9.22333 179.24 9.606C179.847 9.98867 180.309 10.5067 180.626 11.16C180.943 11.804 181.102 12.5273 181.102 13.33C181.102 14.0767 180.985 14.8 180.752 15.5C180.519 16.1907 180.173 16.816 179.716 17.376C179.268 17.9267 178.717 18.3653 178.064 18.692C177.411 19.0093 176.664 19.168 175.824 19.168ZM176.902 10.18C176.305 10.18 175.768 10.306 175.292 10.558C174.825 10.81 174.429 11.1553 174.102 11.594C173.775 12.0327 173.523 12.5273 173.346 13.078C173.178 13.6287 173.094 14.198 173.094 14.786C173.094 15.3833 173.201 15.9293 173.416 16.424C173.631 16.9093 173.948 17.2967 174.368 17.586C174.797 17.8753 175.32 18.02 175.936 18.02C176.533 18.02 177.065 17.894 177.532 17.642C178.008 17.39 178.409 17.0447 178.736 16.606C179.063 16.1673 179.31 15.6727 179.478 15.122C179.655 14.5713 179.744 14.002 179.744 13.414C179.744 12.8167 179.637 12.2753 179.422 11.79C179.207 11.2953 178.89 10.9033 178.47 10.614C178.05 10.3247 177.527 10.18 176.902 10.18ZM183.64 9.312C184.023 9.228 184.405 9.16267 184.788 9.116C185.171 9.06 185.642 9.032 186.202 9.032C186.949 9.032 187.583 9.14867 188.106 9.382C188.638 9.61533 189.072 9.93733 189.408 10.348C189.744 10.7493 189.991 11.2113 190.15 11.734C190.309 12.2473 190.388 12.7887 190.388 13.358C190.388 14.478 190.164 15.4767 189.716 16.354C189.268 17.2313 188.633 17.922 187.812 18.426C186.991 18.9207 186.011 19.168 184.872 19.168C184.275 19.168 183.743 19.126 183.276 19.042C182.809 18.9673 182.385 18.86 182.002 18.72L183.64 9.312ZM186.09 10.152C185.847 10.152 185.619 10.166 185.404 10.194C185.189 10.2127 184.989 10.2453 184.802 10.292L183.486 17.838C183.701 17.894 183.929 17.9407 184.172 17.978C184.415 18.006 184.676 18.02 184.956 18.02C185.768 18.02 186.477 17.8287 187.084 17.446C187.7 17.0633 188.176 16.5313 188.512 15.85C188.848 15.1593 189.016 14.366 189.016 13.47C189.016 12.882 188.913 12.336 188.708 11.832C188.503 11.328 188.185 10.922 187.756 10.614C187.327 10.306 186.771 10.152 186.09 10.152ZM193.007 9.2H198.817L198.621 10.348H194.127L193.609 13.33H197.459L197.263 14.45H193.413L192.811 17.852H197.291L197.095 19H191.285L193.007 9.2ZM200.581 9.34C201.001 9.26533 201.393 9.20467 201.757 9.158C202.13 9.11133 202.564 9.088 203.059 9.088C203.768 9.088 204.366 9.2 204.851 9.424C205.336 9.648 205.705 9.95133 205.957 10.334C206.209 10.7073 206.335 11.1227 206.335 11.58C206.335 12.4293 206.064 13.0687 205.523 13.498C204.982 13.9273 204.268 14.2073 203.381 14.338C203.764 14.506 204.062 14.716 204.277 14.968C204.492 15.2107 204.66 15.4673 204.781 15.738C204.902 16.0087 205 16.2747 205.075 16.536C205.159 16.7973 205.248 17.0353 205.341 17.25C205.434 17.4647 205.565 17.6373 205.733 17.768C205.91 17.8893 206.153 17.95 206.461 17.95L205.971 19.098C205.56 19.098 205.229 19.0187 204.977 18.86C204.725 18.7013 204.52 18.496 204.361 18.244C204.212 17.9827 204.076 17.698 203.955 17.39C203.843 17.0727 203.722 16.76 203.591 16.452C203.46 16.1347 203.292 15.85 203.087 15.598C202.882 15.3367 202.606 15.1267 202.261 14.968C201.925 14.8093 201.491 14.73 200.959 14.73L200.203 19H198.873L200.581 9.34ZM202.975 10.194C202.732 10.194 202.508 10.2033 202.303 10.222C202.107 10.2407 201.92 10.2687 201.743 10.306L201.155 13.61H202.317C203.138 13.61 203.792 13.442 204.277 13.106C204.772 12.77 205.019 12.3173 205.019 11.748C205.019 11.2907 204.837 10.9173 204.473 10.628C204.118 10.3387 203.619 10.194 202.975 10.194ZM212.384 16.522C212.384 16.2607 212.328 16.0227 212.216 15.808C212.114 15.5933 211.922 15.374 211.642 15.15C211.362 14.9167 210.961 14.6553 210.438 14.366C209.71 13.9553 209.192 13.5493 208.884 13.148C208.586 12.7467 208.436 12.2333 208.436 11.608C208.436 11.0853 208.572 10.6327 208.842 10.25C209.122 9.86733 209.51 9.56867 210.004 9.354C210.499 9.13933 211.068 9.032 211.712 9.032C212.3 9.032 212.832 9.10667 213.308 9.256C213.784 9.396 214.228 9.58733 214.638 9.83L213.952 10.922C213.616 10.7073 213.262 10.53 212.888 10.39C212.524 10.25 212.095 10.18 211.6 10.18C211.05 10.18 210.606 10.3013 210.27 10.544C209.934 10.7773 209.766 11.0853 209.766 11.468C209.766 11.8133 209.883 12.1213 210.116 12.392C210.359 12.6533 210.802 12.9567 211.446 13.302C212.062 13.6287 212.534 13.9507 212.86 14.268C213.196 14.576 213.425 14.9027 213.546 15.248C213.677 15.5933 213.742 15.976 213.742 16.396C213.742 16.9653 213.593 17.46 213.294 17.88C213.005 18.2907 212.599 18.608 212.076 18.832C211.554 19.056 210.947 19.168 210.256 19.168C209.584 19.168 208.978 19.0793 208.436 18.902C207.895 18.7153 207.419 18.4587 207.008 18.132L207.876 17.054C208.194 17.3433 208.562 17.5767 208.982 17.754C209.412 17.922 209.883 18.006 210.396 18.006C211.003 18.006 211.484 17.8753 211.838 17.614C212.202 17.3433 212.384 16.9793 212.384 16.522Z" fill="white"/>
<rect x="1" y="1" width="228" height="27" rx="6" stroke="#2F80ED" stroke-width="2"/>
</svg>
